<?xml version="1.0" ?><!DOCTYPE svg  PUBLIC '-//W3C//DTD SVG 1.1//EN'  'http://www.w3.org/Graphics/SVG/1.1/DTD/svg11.dtd'><svg height="2048px" style="shape-rendering:geometricPrecision; text-rendering:geometricPrecision; image-rendering:optimizeQuality; fill-rule:evenodd; clip-rule:evenodd" viewBox="0 0 2048 2048" width="2048px" xml:space="preserve" xmlns="http://www.w3.org/2000/svg" xmlns:xlink="http://www.w3.org/1999/xlink"><defs><style type="text/css">
   <![CDATA[
    .fil1 {fill:none}
    .fil0 {fill:#424242}
   ]]>
  </style></defs><g id="Layer_x0020_1"><g id="_246127184"><path class="fil0" d="M782.098 321.557c0,18.2988 9.37442,41.7473 17.4945,57.515l24.3024 51.2493c-9.85631,11.6339 -63.3437,46.9028 -82.7268,65.139l-11.7461 10.0736c-2.63386,2.34921 -2.79213,2.58662 -4.89922,4.7067 -15.3496,15.4453 -43.5284,47.0823 -54.6461,63.6686 -41.5477,61.9796 -45.717,74.7296 -70.9217,139.354 -5.95748,15.274 -8.09646,29.6457 -12.561,45.2386 -15.0059,52.4067 -15.0012,134.882 -7.76103,190.367 4.98544,38.2099 7.27796,72.7607 -2.92323,110.497 -14.3858,53.2146 -14.3799,25.6973 -14.3799,91.2119 0,8.18505 3.63544,24.9071 5.21457,35.439l1.8248 37.239c-25.239,-1.79882 -50.1485,-30.4843 -66.7914,-48.0307 -7.54843,-7.95827 -11.3835,-10.6925 -19.2803,-19.2 -25.9264,-27.9295 -49.8544,-59.9894 -68.5548,-93.3603 -2.83937,-5.06693 -1.39961,-2.4626 -3.60945,-6.1063 -3.21378,-5.30079 -3.77362,-6.66969 -6.7193,-12.4996 -3.89055,-7.69961 -8.33268,-17.0469 -12.7736,-26.4756 -8.9315,-18.9614 -15.3697,-36.5788 -21.861,-55.317l-8.35158 -30.2988c-8.03977,-21.5563 -15.861,-75.9048 -17.5465,-98.0127 -2.03268,-26.6894 -1.26496,-53.5205 3.49488,-80.9705 10.226,-58.976 14.7851,-79.2142 38.8217,-137.118 9.30119,-22.4032 19.024,-38.3244 30.4087,-57.0685 14.3882,-23.6918 33.1571,-51.8363 52.1646,-70.956 13.8886,-13.9701 47.9504,-44.9611 65.4001,-57.8764l10.9949 -9.75591c-28.7138,-9.6815 -96.1453,50.0493 -118.819,71.1804 -37.0441,34.5225 -82.9194,92.1343 -102.959,140.737l-3.60236 8.59371c-9.78308,19.0417 -18.8858,40.2071 -24.939,60.2339 -7.95945,26.3362 -17.9244,49.7304 -21.6236,77.1993l-7.51536 40.6288c-7.74449,60.8126 -8.70827,78.2611 -8.70827,140.855 0,30.7996 5.40945,69.5682 10.0205,100.841 4.14095,28.0772 16.1634,66.4843 20.0008,93.169 4.83662,33.6343 3.01772,73.917 2.83819,108.122 -0.153543,29.1733 3.83032,77.8973 9.73583,103.958l7.56733 28.6028c7.53662,23.2855 15.0662,47.6504 24.9969,70.0099 30.3768,68.4024 47.7449,96.945 98.1757,145.671 6.91536,6.6815 33.7122,25.8 43.9063,30.9142l25.4705 10.8827c9.52914,4.01575 18.626,6.64725 29.0929,9.32599 21.1016,5.39764 41.3363,8.44607 66.091,8.35394 25.2437,-0.0944883 45.8032,-0.435827 65.3658,-9.01536l35.9268 -38.5878c5.23701,-13.311 -9.46536,-44.8559 -14.0599,-58.1445 -11.3906,-32.9516 -3.34134,-23.2016 -7.95709,-49.8863 -6.43701,-37.2118 -9.25867,-30.6733 2.90197,-65.0209 9.39804,6.49607 63.0331,107.698 67.2969,115.647l24.2669 43.2638c2.71536,5.26063 5.72481,9.54804 8.89253,15.1973 55.5367,99.0296 116.843,188.639 226.935,232.604 40.0323,15.9862 105.572,24.4961 150.07,17.048 26.5229,-4.43977 48.7264,-10.0217 70.2579,-21.698 57.1205,-30.9756 30.8587,-48.2729 13.6406,-82.1812 -16.8484,-33.1819 -30.1996,-61.9926 -35.8666,-102.289 -5.69292,-40.4776 -4.16457,-85.4457 -9.00001,-128.556 -3.95788,-35.2866 -5.23347,-55.1516 1.67717,-91.2142 7.19646,-37.5544 15.9602,-55.8355 60.1134,-70.4138 37.4138,-12.3532 62.1071,24.4984 67.3359,57.1158l2.94449 43.5107c0,9.94725 -2.13189,10.4976 -2.42717,21.704 -1.13976,43.1363 -3.17362,93.5552 -11.8406,134.819l-7.00985 68.263c0.0212599,16.2024 3.12638,30.2433 5.03977,45.9189 1.92874,15.7961 8.11772,24.6732 17.5016,31.7315l36.4737 14.6492 53.165 0c34.6807,0 95.4402,-27.3555 126.139,-43.6642 80.4957,-42.7618 101.336,-86.0776 134.438,-170.097 21.0024,-53.3115 58.2993,-145.089 69.3119,-201.775 2.78977,-14.361 16.2839,-59.2311 20.2016,-80.8583 6.15591,-33.9862 21.9461,-118.123 21.7004,-146.94 -0.201969,-23.5666 3.71929,-40.4575 4.67008,-62.8831l0 -77.3434c0,-5.46969 -4.00158,-19.6075 -4.55197,-26.6681 -2.13543,-27.4477 -2.06693,-56.9528 -9.43111,-84.567 -3.12756,-11.7236 -3.13347,-11.6976 -5.29252,-26.0587 -3.41221,-22.689 -15.2032,-49.6666 -22.7173,-71.9965 -4.65,8.33859 -4.99489,26.8347 -4.90985,40.1351 0.145276,22.95 -4.85552,37.3973 -7.48819,60.2186l-8.57009 41.0138c-30.117,91.7221 -61.8272,148.706 -146.688,203.307 -40.1079,25.8059 -96.2186,43.9548 -145.121,44.5725 -9.51969,0.119291 -13.4339,1.81654 -21.6886,2.34685 -46.1256,-0.972048 -52.5898,-14.6374 -84.8682,34.7268 -0.387402,0.591733 -1.45394,2.33032 -1.85551,2.91496 -0.28937,0.419292 -0.677953,1.01693 -0.976772,1.43032 -9.66024,13.3807 -26.7295,25.9063 -41.9977,30.2811 -40.2851,11.5417 -95.7568,-34.1008 -116.793,-34.1008 -25.5024,0 -44.2347,19.2331 -85.9831,10.9866 -42.2162,-8.33859 -49.5768,-36.1973 -63.5221,-71.7922 -3.48307,-8.89135 0.381496,-0.549213 -3.9189,-8.11418 -12.5398,-22.0654 -12.3201,-21.0236 -40.5083,-29.3551 -101.293,-29.9386 -164.728,-79.1717 -211.655,-172.78 -6.77599,-13.5177 -9.37796,-26.1272 -14.7744,-40.6784 -14.9705,-40.3725 -18.274,-85.6229 -18.274,-128.183 0,-19.7906 10.35,-77.0375 16.9146,-98.1568l11.0457 -44.5359c2.5878,-10.4917 4.52244,-11.5158 7.26379,-21.5634 5.6126,-20.5666 13.924,-42.5729 22.9217,-61.4634 19.8732,-41.7237 39.4512,-68.3847 69.3036,-102.391 19.6311,7.88741 40.8969,21.1382 62.2819,21.1382 14.9067,0 28.8414,-20.6729 38.9091,-28.6618 39.0024,-30.9484 91.0182,-46.3181 137.097,-65.0457 2.72953,-33.4807 5.9693,-65.126 0.204331,-99.2871l-8.69764 -30.0343c-23.1284,-66.4016 -67.5012,-90.3178 -145.754,-84.5079 -42.515,3.15709 -81.802,26.4142 -106.622,46.2178 -28.7445,22.9347 -53.1839,63.8327 -53.1839,101.817z" id="_246128120"/><path class="fil0" d="M1470.26 408.568c0,13.0524 4.27087,23.5311 12.2658,32.0693 6.68386,7.13741 15.0213,10.6406 24.561,14.4095 97.7505,38.6209 64.728,37.428 89.6162,69.7347l41.1614 38.4815c21.3083,8.40946 85.0194,-32.504 108.079,-53.8441 29.7898,-27.5693 45.2067,-73.7221 38.0941,-111.885 -6.25867,-33.5776 -25.9099,-66.2375 -51.9945,-87.7536l-25.9051 -20.1449c-8.38229,-5.54646 -14.8465,-10.0973 -23.55,-14.9138l-61.6394 -16.7634c-59.967,-8.00906 -116.744,50.1815 -134.63,95.3694 -4.37481,11.0528 -16.0583,46.4244 -16.0583,55.2402z" id="_246127904"/><path class="fil0" d="M1319.94 887.127l15.8303 21.991c9.82324,16.4977 21.1701,46.3914 27.5858,63.9615 18.9862,51.9981 40.8567,96.8599 107.59,90.2694 20.4803,-2.02323 31.2981,-13.1953 41.674,-23.4343 14.4921,-14.2996 18.7004,-17.7331 27.8244,-37.3252l5.0752 -11.7662c25.5957,-70.0749 -9.2067,-185.677 -81.3556,-212.328 -79.9973,-29.5512 -125.727,45.6426 -144.225,108.632z" id="_246128432"/><path class="fil0" d="M890.143 884.71c0,36.6071 10.6831,68.0847 35.7307,93.3367 3.53032,3.55866 12.0638,9.94843 16.1776,12.7252 3.29292,2.22284 5.74252,3.37914 9.73938,4.66181 28.2142,9.05552 60.1725,-1.49528 80.5111,-17.8134 19.3075,-15.4914 29.7709,-31.1457 42.3614,-52.1469l12.1547 -19.2685c15.4795,-21.5292 23.778,-27.391 43.9831,-47.6835 -2.09173,-19.0807 -3.67205,-45.3272 -9.67205,-61.3985 -2.22874,-5.96693 -1.34291,-3.08622 -3.54922,-10.9689 -4.61221,-16.4776 -23.5914,-47.2949 -34.3866,-52.3713 -8.40709,-3.95315 -41.7296,-13.1421 -51.887,-13.1421 -5.27599,0 -24.2032,5.18977 -29.0528,6.88229 -58.604,20.4461 -112.11,98.1934 -112.11,157.187z" id="_246127808"/><path class="fil0" d="M1166.59 1206.18c40.4091,2.17795 12.2032,-12.5587 69.3638,-27.6969 11.2476,-2.97874 21.3272,-4.86733 33.3768,-7.81418 5.41063,-3.48189 17.7177,-20.8122 17.7177,-27.3402 0,-37.7752 -73.7493,-42.8339 -105.782,-46.7977 -29.6339,-3.66733 -74.4119,-12.0673 -92.5335,12.2799 -27.4984,36.9449 34.0524,49.5804 51.6296,60.6142 8.69883,5.46024 20.7567,28.5272 26.2276,36.7548z" id="_246127664"/><path class="fil0" d="M1176.3 1328.94c20.5158,0 57.1701,-17.6114 77.8784,-25.2898 -1.15394,-28.7906 -23.9091,-14.2358 -79.2071,-23.0457l-60.5871 -13.1693c-53.3847,-14.2677 -15.6732,29.6646 4.50355,44.4721 11.5913,8.50749 39.5433,17.0327 57.4122,17.0327z" id="_246127616"/></g></g><rect class="fil1" height="2048" width="2048"/></svg>